<mxfile host="app.diagrams.net" modified="2021-02-07T09:33:54.386Z" agent="5.0 (Windows NT 10.0; Win64; x64) AppleWebKit/537.36 (KHTML, like Gecko) Chrome/88.0.4324.150 Safari/537.36" etag="mn_eZtU13bz__s-TpCqz" version="14.2.9" type="github">
  <diagram id="R2lEEEUBdFMjLlhIrx00" name="Page-1">
    <mxGraphModel dx="2272" dy="762" grid="1" gridSize="10" guides="1" tooltips="1" connect="1" arrows="1" fold="1" page="1" pageScale="1" pageWidth="850" pageHeight="1100" math="0" shadow="0" extFonts="Permanent Marker^https://fonts.googleapis.com/css?family=Permanent+Marker">
      <root>
        <mxCell id="0" />
        <mxCell id="1" parent="0" />
        <mxCell id="C-vyLk0tnHw3VtMMgP7b-2" value="Material_volume_changeables" style="shape=table;startSize=30;container=1;collapsible=1;childLayout=tableLayout;fixedRows=1;rowLines=0;fontStyle=1;align=center;resizeLast=1;" parent="1" vertex="1">
          <mxGeometry x="310" y="60" width="250" height="160" as="geometry" />
        </mxCell>
        <mxCell id="C-vyLk0tnHw3VtMMgP7b-3" value="" style="shape=partialRectangle;collapsible=0;dropTarget=0;pointerEvents=0;fillColor=none;points=[[0,0.5],[1,0.5]];portConstraint=eastwest;top=0;left=0;right=0;bottom=1;" parent="C-vyLk0tnHw3VtMMgP7b-2" vertex="1">
          <mxGeometry y="30" width="250" height="30" as="geometry" />
        </mxCell>
        <mxCell id="C-vyLk0tnHw3VtMMgP7b-4" value="PK" style="shape=partialRectangle;overflow=hidden;connectable=0;fillColor=none;top=0;left=0;bottom=0;right=0;fontStyle=1;" parent="C-vyLk0tnHw3VtMMgP7b-3" vertex="1">
          <mxGeometry width="30" height="30" as="geometry" />
        </mxCell>
        <mxCell id="C-vyLk0tnHw3VtMMgP7b-5" value="MV_ id int NOT NULL " style="shape=partialRectangle;overflow=hidden;connectable=0;fillColor=none;top=0;left=0;bottom=0;right=0;align=left;spacingLeft=6;fontStyle=5;" parent="C-vyLk0tnHw3VtMMgP7b-3" vertex="1">
          <mxGeometry x="30" width="220" height="30" as="geometry" />
        </mxCell>
        <mxCell id="C-vyLk0tnHw3VtMMgP7b-6" value="" style="shape=partialRectangle;collapsible=0;dropTarget=0;pointerEvents=0;fillColor=none;points=[[0,0.5],[1,0.5]];portConstraint=eastwest;top=0;left=0;right=0;bottom=0;" parent="C-vyLk0tnHw3VtMMgP7b-2" vertex="1">
          <mxGeometry y="60" width="250" height="30" as="geometry" />
        </mxCell>
        <mxCell id="C-vyLk0tnHw3VtMMgP7b-7" value="FK1" style="shape=partialRectangle;overflow=hidden;connectable=0;fillColor=none;top=0;left=0;bottom=0;right=0;" parent="C-vyLk0tnHw3VtMMgP7b-6" vertex="1">
          <mxGeometry width="30" height="30" as="geometry" />
        </mxCell>
        <mxCell id="C-vyLk0tnHw3VtMMgP7b-8" value="id int NOT NULL" style="shape=partialRectangle;overflow=hidden;connectable=0;fillColor=none;top=0;left=0;bottom=0;right=0;align=left;spacingLeft=6;" parent="C-vyLk0tnHw3VtMMgP7b-6" vertex="1">
          <mxGeometry x="30" width="220" height="30" as="geometry" />
        </mxCell>
        <mxCell id="C-vyLk0tnHw3VtMMgP7b-9" value="" style="shape=partialRectangle;collapsible=0;dropTarget=0;pointerEvents=0;fillColor=none;points=[[0,0.5],[1,0.5]];portConstraint=eastwest;top=0;left=0;right=0;bottom=0;" parent="C-vyLk0tnHw3VtMMgP7b-2" vertex="1">
          <mxGeometry y="90" width="250" height="70" as="geometry" />
        </mxCell>
        <mxCell id="C-vyLk0tnHw3VtMMgP7b-10" value="" style="shape=partialRectangle;overflow=hidden;connectable=0;fillColor=none;top=0;left=0;bottom=0;right=0;" parent="C-vyLk0tnHw3VtMMgP7b-9" vertex="1">
          <mxGeometry width="30" height="70" as="geometry" />
        </mxCell>
        <mxCell id="C-vyLk0tnHw3VtMMgP7b-11" value="size A float &#xa;size B float&#xa;size C float " style="shape=partialRectangle;overflow=hidden;connectable=0;fillColor=none;top=0;left=0;bottom=0;right=0;align=left;spacingLeft=6;verticalAlign=top;" parent="C-vyLk0tnHw3VtMMgP7b-9" vertex="1">
          <mxGeometry x="30" width="220" height="70" as="geometry" />
        </mxCell>
        <mxCell id="C-vyLk0tnHw3VtMMgP7b-13" value="Fermi" style="shape=table;startSize=30;container=1;collapsible=1;childLayout=tableLayout;fixedRows=1;rowLines=0;fontStyle=1;align=center;resizeLast=1;" parent="1" vertex="1">
          <mxGeometry x="40" y="290" width="240" height="160" as="geometry" />
        </mxCell>
        <mxCell id="C-vyLk0tnHw3VtMMgP7b-14" value="" style="shape=partialRectangle;collapsible=0;dropTarget=0;pointerEvents=0;fillColor=none;points=[[0,0.5],[1,0.5]];portConstraint=eastwest;top=0;left=0;right=0;bottom=1;" parent="C-vyLk0tnHw3VtMMgP7b-13" vertex="1">
          <mxGeometry y="30" width="240" height="30" as="geometry" />
        </mxCell>
        <mxCell id="C-vyLk0tnHw3VtMMgP7b-15" value="PK" style="shape=partialRectangle;overflow=hidden;connectable=0;fillColor=none;top=0;left=0;bottom=0;right=0;fontStyle=1;" parent="C-vyLk0tnHw3VtMMgP7b-14" vertex="1">
          <mxGeometry width="30" height="30" as="geometry" />
        </mxCell>
        <mxCell id="C-vyLk0tnHw3VtMMgP7b-16" value="MF_id int NOT NULL " style="shape=partialRectangle;overflow=hidden;connectable=0;fillColor=none;top=0;left=0;bottom=0;right=0;align=left;spacingLeft=6;fontStyle=5;" parent="C-vyLk0tnHw3VtMMgP7b-14" vertex="1">
          <mxGeometry x="30" width="210" height="30" as="geometry" />
        </mxCell>
        <mxCell id="C-vyLk0tnHw3VtMMgP7b-17" value="" style="shape=partialRectangle;collapsible=0;dropTarget=0;pointerEvents=0;fillColor=none;points=[[0,0.5],[1,0.5]];portConstraint=eastwest;top=0;left=0;right=0;bottom=0;" parent="C-vyLk0tnHw3VtMMgP7b-13" vertex="1">
          <mxGeometry y="60" width="240" height="30" as="geometry" />
        </mxCell>
        <mxCell id="C-vyLk0tnHw3VtMMgP7b-18" value="FK1" style="shape=partialRectangle;overflow=hidden;connectable=0;fillColor=none;top=0;left=0;bottom=0;right=0;" parent="C-vyLk0tnHw3VtMMgP7b-17" vertex="1">
          <mxGeometry width="30" height="30" as="geometry" />
        </mxCell>
        <mxCell id="C-vyLk0tnHw3VtMMgP7b-19" value="MC_ id int NOT NULL" style="shape=partialRectangle;overflow=hidden;connectable=0;fillColor=none;top=0;left=0;bottom=0;right=0;align=left;spacingLeft=6;" parent="C-vyLk0tnHw3VtMMgP7b-17" vertex="1">
          <mxGeometry x="30" width="210" height="30" as="geometry" />
        </mxCell>
        <mxCell id="C-vyLk0tnHw3VtMMgP7b-20" value="" style="shape=partialRectangle;collapsible=0;dropTarget=0;pointerEvents=0;fillColor=none;points=[[0,0.5],[1,0.5]];portConstraint=eastwest;top=0;left=0;right=0;bottom=0;" parent="C-vyLk0tnHw3VtMMgP7b-13" vertex="1">
          <mxGeometry y="90" width="240" height="30" as="geometry" />
        </mxCell>
        <mxCell id="C-vyLk0tnHw3VtMMgP7b-21" value="" style="shape=partialRectangle;overflow=hidden;connectable=0;fillColor=none;top=0;left=0;bottom=0;right=0;" parent="C-vyLk0tnHw3VtMMgP7b-20" vertex="1">
          <mxGeometry width="30" height="30" as="geometry" />
        </mxCell>
        <mxCell id="C-vyLk0tnHw3VtMMgP7b-22" value="MO_ id int NOT NULL" style="shape=partialRectangle;overflow=hidden;connectable=0;fillColor=none;top=0;left=0;bottom=0;right=0;align=left;spacingLeft=6;" parent="C-vyLk0tnHw3VtMMgP7b-20" vertex="1">
          <mxGeometry x="30" width="210" height="30" as="geometry" />
        </mxCell>
        <mxCell id="C-vyLk0tnHw3VtMMgP7b-23" value="Material" style="shape=table;startSize=30;container=1;collapsible=1;childLayout=tableLayout;fixedRows=1;rowLines=0;fontStyle=1;align=center;resizeLast=1;" parent="1" vertex="1">
          <mxGeometry x="40" y="60" width="240" height="200" as="geometry" />
        </mxCell>
        <mxCell id="C-vyLk0tnHw3VtMMgP7b-24" value="" style="shape=partialRectangle;collapsible=0;dropTarget=0;pointerEvents=0;fillColor=none;points=[[0,0.5],[1,0.5]];portConstraint=eastwest;top=0;left=0;right=0;bottom=1;" parent="C-vyLk0tnHw3VtMMgP7b-23" vertex="1">
          <mxGeometry y="30" width="240" height="30" as="geometry" />
        </mxCell>
        <mxCell id="C-vyLk0tnHw3VtMMgP7b-25" value="PK" style="shape=partialRectangle;overflow=hidden;connectable=0;fillColor=none;top=0;left=0;bottom=0;right=0;fontStyle=1;" parent="C-vyLk0tnHw3VtMMgP7b-24" vertex="1">
          <mxGeometry width="30" height="30" as="geometry" />
        </mxCell>
        <mxCell id="C-vyLk0tnHw3VtMMgP7b-26" value="MC_id int NOT NULL " style="shape=partialRectangle;overflow=hidden;connectable=0;fillColor=none;top=0;left=0;bottom=0;right=0;align=left;spacingLeft=6;fontStyle=5;" parent="C-vyLk0tnHw3VtMMgP7b-24" vertex="1">
          <mxGeometry x="30" width="210" height="30" as="geometry" />
        </mxCell>
        <mxCell id="C-vyLk0tnHw3VtMMgP7b-27" value="" style="shape=partialRectangle;collapsible=0;dropTarget=0;pointerEvents=0;fillColor=none;points=[[0,0.5],[1,0.5]];portConstraint=eastwest;top=0;left=0;right=0;bottom=0;" parent="C-vyLk0tnHw3VtMMgP7b-23" vertex="1">
          <mxGeometry y="60" width="240" height="140" as="geometry" />
        </mxCell>
        <mxCell id="C-vyLk0tnHw3VtMMgP7b-28" value="" style="shape=partialRectangle;overflow=hidden;connectable=0;fillColor=none;top=0;left=0;bottom=0;right=0;" parent="C-vyLk0tnHw3VtMMgP7b-27" vertex="1">
          <mxGeometry width="30" height="140" as="geometry" />
        </mxCell>
        <mxCell id="C-vyLk0tnHw3VtMMgP7b-29" value="structure name char(50) NOT NULL&#xa;Foreignkey()&#xa;&#xa;" style="shape=partialRectangle;overflow=hidden;connectable=0;fillColor=none;top=0;left=0;bottom=0;right=0;align=left;spacingLeft=6;verticalAlign=top;" parent="C-vyLk0tnHw3VtMMgP7b-27" vertex="1">
          <mxGeometry x="30" width="210" height="140" as="geometry" />
        </mxCell>
        <mxCell id="v9vL_RGr1yaiKwniNfNM-2" value="Material_other_changeables" style="shape=table;startSize=30;container=1;collapsible=1;childLayout=tableLayout;fixedRows=1;rowLines=0;fontStyle=1;align=center;resizeLast=1;" vertex="1" parent="1">
          <mxGeometry x="580" y="60" width="250" height="150" as="geometry" />
        </mxCell>
        <mxCell id="v9vL_RGr1yaiKwniNfNM-3" value="" style="shape=partialRectangle;collapsible=0;dropTarget=0;pointerEvents=0;fillColor=none;points=[[0,0.5],[1,0.5]];portConstraint=eastwest;top=0;left=0;right=0;bottom=1;" vertex="1" parent="v9vL_RGr1yaiKwniNfNM-2">
          <mxGeometry y="30" width="250" height="30" as="geometry" />
        </mxCell>
        <mxCell id="v9vL_RGr1yaiKwniNfNM-4" value="PK" style="shape=partialRectangle;overflow=hidden;connectable=0;fillColor=none;top=0;left=0;bottom=0;right=0;fontStyle=1;" vertex="1" parent="v9vL_RGr1yaiKwniNfNM-3">
          <mxGeometry width="30" height="30" as="geometry" />
        </mxCell>
        <mxCell id="v9vL_RGr1yaiKwniNfNM-5" value="MO_ id int NOT NULL " style="shape=partialRectangle;overflow=hidden;connectable=0;fillColor=none;top=0;left=0;bottom=0;right=0;align=left;spacingLeft=6;fontStyle=5;" vertex="1" parent="v9vL_RGr1yaiKwniNfNM-3">
          <mxGeometry x="30" width="220" height="30" as="geometry" />
        </mxCell>
        <mxCell id="v9vL_RGr1yaiKwniNfNM-6" value="" style="shape=partialRectangle;collapsible=0;dropTarget=0;pointerEvents=0;fillColor=none;points=[[0,0.5],[1,0.5]];portConstraint=eastwest;top=0;left=0;right=0;bottom=0;" vertex="1" parent="v9vL_RGr1yaiKwniNfNM-2">
          <mxGeometry y="60" width="250" height="30" as="geometry" />
        </mxCell>
        <mxCell id="v9vL_RGr1yaiKwniNfNM-7" value="FK1" style="shape=partialRectangle;overflow=hidden;connectable=0;fillColor=none;top=0;left=0;bottom=0;right=0;" vertex="1" parent="v9vL_RGr1yaiKwniNfNM-6">
          <mxGeometry width="30" height="30" as="geometry" />
        </mxCell>
        <mxCell id="v9vL_RGr1yaiKwniNfNM-8" value="id int NOT NULL" style="shape=partialRectangle;overflow=hidden;connectable=0;fillColor=none;top=0;left=0;bottom=0;right=0;align=left;spacingLeft=6;" vertex="1" parent="v9vL_RGr1yaiKwniNfNM-6">
          <mxGeometry x="30" width="220" height="30" as="geometry" />
        </mxCell>
        <mxCell id="v9vL_RGr1yaiKwniNfNM-9" value="" style="shape=partialRectangle;collapsible=0;dropTarget=0;pointerEvents=0;fillColor=none;points=[[0,0.5],[1,0.5]];portConstraint=eastwest;top=0;left=0;right=0;bottom=0;" vertex="1" parent="v9vL_RGr1yaiKwniNfNM-2">
          <mxGeometry y="90" width="250" height="60" as="geometry" />
        </mxCell>
        <mxCell id="v9vL_RGr1yaiKwniNfNM-10" value="" style="shape=partialRectangle;overflow=hidden;connectable=0;fillColor=none;top=0;left=0;bottom=0;right=0;" vertex="1" parent="v9vL_RGr1yaiKwniNfNM-9">
          <mxGeometry width="30" height="60" as="geometry" />
        </mxCell>
        <mxCell id="v9vL_RGr1yaiKwniNfNM-11" value="bonding length float NOT NULL" style="shape=partialRectangle;overflow=hidden;connectable=0;fillColor=none;top=0;left=0;bottom=0;right=0;align=left;spacingLeft=6;verticalAlign=top;" vertex="1" parent="v9vL_RGr1yaiKwniNfNM-9">
          <mxGeometry x="30" width="220" height="60" as="geometry" />
        </mxCell>
        <mxCell id="v9vL_RGr1yaiKwniNfNM-13" value="" style="shape=partialRectangle;collapsible=0;dropTarget=0;pointerEvents=0;fillColor=none;points=[[0,0.5],[1,0.5]];portConstraint=eastwest;top=0;left=0;right=0;bottom=0;" vertex="1" parent="1">
          <mxGeometry x="40" y="410" width="250" height="30" as="geometry" />
        </mxCell>
        <mxCell id="v9vL_RGr1yaiKwniNfNM-14" value="" style="shape=partialRectangle;overflow=hidden;connectable=0;fillColor=none;top=0;left=0;bottom=0;right=0;" vertex="1" parent="v9vL_RGr1yaiKwniNfNM-13">
          <mxGeometry width="30" height="30" as="geometry" />
        </mxCell>
        <mxCell id="v9vL_RGr1yaiKwniNfNM-15" value="MC_id int NOT NULL" style="shape=partialRectangle;overflow=hidden;connectable=0;fillColor=none;top=0;left=0;bottom=0;right=0;align=left;spacingLeft=6;" vertex="1" parent="v9vL_RGr1yaiKwniNfNM-13">
          <mxGeometry x="30" width="220" height="30" as="geometry" />
        </mxCell>
        <mxCell id="v9vL_RGr1yaiKwniNfNM-16" value="FK1" style="shape=partialRectangle;overflow=hidden;connectable=0;fillColor=none;top=0;left=0;bottom=0;right=0;" vertex="1" parent="1">
          <mxGeometry x="40" y="380" width="30" height="30" as="geometry" />
        </mxCell>
        <mxCell id="v9vL_RGr1yaiKwniNfNM-17" value="FK1" style="shape=partialRectangle;overflow=hidden;connectable=0;fillColor=none;top=0;left=0;bottom=0;right=0;" vertex="1" parent="1">
          <mxGeometry x="40" y="410" width="30" height="30" as="geometry" />
        </mxCell>
        <mxCell id="v9vL_RGr1yaiKwniNfNM-84" value="" style="shape=partialRectangle;overflow=hidden;connectable=0;fillColor=none;top=0;left=0;bottom=0;right=0;" vertex="1" parent="1">
          <mxGeometry x="320" y="520" width="30" height="30" as="geometry" />
        </mxCell>
        <mxCell id="v9vL_RGr1yaiKwniNfNM-88" value="" style="shape=partialRectangle;overflow=hidden;connectable=0;fillColor=none;top=0;left=0;bottom=0;right=0;" vertex="1" parent="1">
          <mxGeometry x="320" y="550" width="30" height="30" as="geometry" />
        </mxCell>
        <mxCell id="v9vL_RGr1yaiKwniNfNM-93" value="" style="group" vertex="1" connectable="0" parent="1">
          <mxGeometry x="580" y="230" width="250" height="240" as="geometry" />
        </mxCell>
        <mxCell id="v9vL_RGr1yaiKwniNfNM-95" value="" style="group" vertex="1" connectable="0" parent="v9vL_RGr1yaiKwniNfNM-93">
          <mxGeometry width="250.00000000000003" height="240" as="geometry" />
        </mxCell>
        <mxCell id="v9vL_RGr1yaiKwniNfNM-18" value="Material_structure type" style="shape=table;startSize=30;container=1;collapsible=1;childLayout=tableLayout;fixedRows=1;rowLines=0;fontStyle=1;align=center;resizeLast=1;" vertex="1" parent="v9vL_RGr1yaiKwniNfNM-95">
          <mxGeometry width="239.58333333333334" height="240" as="geometry">
            <mxRectangle width="160" height="30" as="alternateBounds" />
          </mxGeometry>
        </mxCell>
        <mxCell id="v9vL_RGr1yaiKwniNfNM-19" value="" style="shape=partialRectangle;collapsible=0;dropTarget=0;pointerEvents=0;fillColor=none;points=[[0,0.5],[1,0.5]];portConstraint=eastwest;top=0;left=0;right=0;bottom=1;" vertex="1" parent="v9vL_RGr1yaiKwniNfNM-18">
          <mxGeometry y="30" width="239.58333333333334" height="30" as="geometry" />
        </mxCell>
        <mxCell id="v9vL_RGr1yaiKwniNfNM-20" value="PK" style="shape=partialRectangle;overflow=hidden;connectable=0;fillColor=none;top=0;left=0;bottom=0;right=0;fontStyle=1;" vertex="1" parent="v9vL_RGr1yaiKwniNfNM-19">
          <mxGeometry width="30" height="30" as="geometry" />
        </mxCell>
        <mxCell id="v9vL_RGr1yaiKwniNfNM-21" value="MS_id int NOT NULL " style="shape=partialRectangle;overflow=hidden;connectable=0;fillColor=none;top=0;left=0;bottom=0;right=0;align=left;spacingLeft=6;fontStyle=5;" vertex="1" parent="v9vL_RGr1yaiKwniNfNM-19">
          <mxGeometry x="30" width="209.58333333333334" height="30" as="geometry" />
        </mxCell>
        <mxCell id="v9vL_RGr1yaiKwniNfNM-22" value="" style="shape=partialRectangle;collapsible=0;dropTarget=0;pointerEvents=0;fillColor=none;points=[[0,0.5],[1,0.5]];portConstraint=eastwest;top=0;left=0;right=0;bottom=0;" vertex="1" parent="v9vL_RGr1yaiKwniNfNM-18">
          <mxGeometry y="60" width="239.58333333333334" height="30" as="geometry" />
        </mxCell>
        <mxCell id="v9vL_RGr1yaiKwniNfNM-23" value="" style="shape=partialRectangle;overflow=hidden;connectable=0;fillColor=none;top=0;left=0;bottom=0;right=0;" vertex="1" parent="v9vL_RGr1yaiKwniNfNM-22">
          <mxGeometry width="30" height="30" as="geometry" />
        </mxCell>
        <mxCell id="v9vL_RGr1yaiKwniNfNM-24" value="structure type char(50) NOT NULL" style="shape=partialRectangle;overflow=hidden;connectable=0;fillColor=none;top=0;left=0;bottom=0;right=0;align=left;spacingLeft=6;" vertex="1" parent="v9vL_RGr1yaiKwniNfNM-22">
          <mxGeometry x="30" width="209.58333333333334" height="30" as="geometry" />
        </mxCell>
        <mxCell id="v9vL_RGr1yaiKwniNfNM-25" value="" style="shape=partialRectangle;collapsible=0;dropTarget=0;pointerEvents=0;fillColor=none;points=[[0,0.5],[1,0.5]];portConstraint=eastwest;top=0;left=0;right=0;bottom=0;" vertex="1" parent="v9vL_RGr1yaiKwniNfNM-18">
          <mxGeometry y="90" width="239.58333333333334" height="30" as="geometry" />
        </mxCell>
        <mxCell id="v9vL_RGr1yaiKwniNfNM-26" value="" style="shape=partialRectangle;overflow=hidden;connectable=0;fillColor=none;top=0;left=0;bottom=0;right=0;" vertex="1" parent="v9vL_RGr1yaiKwniNfNM-25">
          <mxGeometry width="30" height="30" as="geometry" />
        </mxCell>
        <mxCell id="v9vL_RGr1yaiKwniNfNM-27" value="" style="shape=partialRectangle;overflow=hidden;connectable=0;fillColor=none;top=0;left=0;bottom=0;right=0;align=left;spacingLeft=6;" vertex="1" parent="v9vL_RGr1yaiKwniNfNM-25">
          <mxGeometry x="30" width="209.58333333333334" height="30" as="geometry" />
        </mxCell>
        <mxCell id="v9vL_RGr1yaiKwniNfNM-94" value="" style="group" vertex="1" connectable="0" parent="v9vL_RGr1yaiKwniNfNM-95">
          <mxGeometry y="85" width="250.00000000000003" height="60" as="geometry" />
        </mxCell>
        <mxCell id="v9vL_RGr1yaiKwniNfNM-28" value="" style="shape=partialRectangle;collapsible=0;dropTarget=0;pointerEvents=0;fillColor=none;points=[[0,0.5],[1,0.5]];portConstraint=eastwest;top=0;left=0;right=0;bottom=0;" vertex="1" parent="v9vL_RGr1yaiKwniNfNM-94">
          <mxGeometry width="250.00000000000003" height="30" as="geometry" />
        </mxCell>
        <mxCell id="v9vL_RGr1yaiKwniNfNM-29" value="FK1" style="shape=partialRectangle;overflow=hidden;connectable=0;fillColor=none;top=0;left=0;bottom=0;right=0;" vertex="1" parent="v9vL_RGr1yaiKwniNfNM-28">
          <mxGeometry width="31.250000000000004" height="30" as="geometry" />
        </mxCell>
        <mxCell id="v9vL_RGr1yaiKwniNfNM-30" value="MC_id int NOT NULL" style="shape=partialRectangle;overflow=hidden;connectable=0;fillColor=none;top=0;left=0;bottom=0;right=0;align=left;spacingLeft=6;" vertex="1" parent="v9vL_RGr1yaiKwniNfNM-28">
          <mxGeometry x="31.250000000000004" width="218.75000000000003" height="30" as="geometry" />
        </mxCell>
        <mxCell id="v9vL_RGr1yaiKwniNfNM-31" value="" style="shape=partialRectangle;collapsible=0;dropTarget=0;pointerEvents=0;fillColor=none;points=[[0,0.5],[1,0.5]];portConstraint=eastwest;top=0;left=0;right=0;bottom=0;" vertex="1" parent="v9vL_RGr1yaiKwniNfNM-94">
          <mxGeometry y="30" width="250.00000000000003" height="30" as="geometry" />
        </mxCell>
        <mxCell id="v9vL_RGr1yaiKwniNfNM-32" value="" style="shape=partialRectangle;overflow=hidden;connectable=0;fillColor=none;top=0;left=0;bottom=0;right=0;" vertex="1" parent="v9vL_RGr1yaiKwniNfNM-31">
          <mxGeometry width="31.250000000000004" height="30" as="geometry" />
        </mxCell>
        <mxCell id="v9vL_RGr1yaiKwniNfNM-33" value="Dimension char(64)  NOT NULL" style="shape=partialRectangle;overflow=hidden;connectable=0;fillColor=none;top=0;left=0;bottom=0;right=0;align=left;spacingLeft=6;" vertex="1" parent="v9vL_RGr1yaiKwniNfNM-31">
          <mxGeometry x="31.250000000000004" width="218.75000000000003" height="30" as="geometry" />
        </mxCell>
        <mxCell id="v9vL_RGr1yaiKwniNfNM-104" value="" style="group" vertex="1" connectable="0" parent="1">
          <mxGeometry x="320" y="240" width="240" height="350" as="geometry" />
        </mxCell>
        <mxCell id="v9vL_RGr1yaiKwniNfNM-50" value="Simulation Results" style="shape=table;startSize=30;container=1;collapsible=1;childLayout=tableLayout;fixedRows=1;rowLines=0;fontStyle=1;align=center;resizeLast=1;" vertex="1" parent="v9vL_RGr1yaiKwniNfNM-104">
          <mxGeometry width="240" height="350" as="geometry" />
        </mxCell>
        <mxCell id="v9vL_RGr1yaiKwniNfNM-51" value="" style="shape=partialRectangle;collapsible=0;dropTarget=0;pointerEvents=0;fillColor=none;points=[[0,0.5],[1,0.5]];portConstraint=eastwest;top=0;left=0;right=0;bottom=1;" vertex="1" parent="v9vL_RGr1yaiKwniNfNM-50">
          <mxGeometry y="30" width="240" height="30" as="geometry" />
        </mxCell>
        <mxCell id="v9vL_RGr1yaiKwniNfNM-52" value="PK" style="shape=partialRectangle;overflow=hidden;connectable=0;fillColor=none;top=0;left=0;bottom=0;right=0;fontStyle=1;" vertex="1" parent="v9vL_RGr1yaiKwniNfNM-51">
          <mxGeometry width="30" height="30" as="geometry" />
        </mxCell>
        <mxCell id="v9vL_RGr1yaiKwniNfNM-53" value="MS_id int NOT NULL " style="shape=partialRectangle;overflow=hidden;connectable=0;fillColor=none;top=0;left=0;bottom=0;right=0;align=left;spacingLeft=6;fontStyle=5;" vertex="1" parent="v9vL_RGr1yaiKwniNfNM-51">
          <mxGeometry x="30" width="210" height="30" as="geometry" />
        </mxCell>
        <mxCell id="v9vL_RGr1yaiKwniNfNM-54" value="" style="shape=partialRectangle;collapsible=0;dropTarget=0;pointerEvents=0;fillColor=none;points=[[0,0.5],[1,0.5]];portConstraint=eastwest;top=0;left=0;right=0;bottom=0;" vertex="1" parent="v9vL_RGr1yaiKwniNfNM-50">
          <mxGeometry y="60" width="240" height="30" as="geometry" />
        </mxCell>
        <mxCell id="v9vL_RGr1yaiKwniNfNM-55" value="" style="shape=partialRectangle;overflow=hidden;connectable=0;fillColor=none;top=0;left=0;bottom=0;right=0;" vertex="1" parent="v9vL_RGr1yaiKwniNfNM-54">
          <mxGeometry width="30" height="30" as="geometry" />
        </mxCell>
        <mxCell id="v9vL_RGr1yaiKwniNfNM-56" value="" style="shape=partialRectangle;overflow=hidden;connectable=0;fillColor=none;top=0;left=0;bottom=0;right=0;align=left;spacingLeft=6;" vertex="1" parent="v9vL_RGr1yaiKwniNfNM-54">
          <mxGeometry x="30" width="210" height="30" as="geometry" />
        </mxCell>
        <mxCell id="v9vL_RGr1yaiKwniNfNM-57" value="" style="shape=partialRectangle;collapsible=0;dropTarget=0;pointerEvents=0;fillColor=none;points=[[0,0.5],[1,0.5]];portConstraint=eastwest;top=0;left=0;right=0;bottom=0;" vertex="1" parent="v9vL_RGr1yaiKwniNfNM-50">
          <mxGeometry y="90" width="240" height="30" as="geometry" />
        </mxCell>
        <mxCell id="v9vL_RGr1yaiKwniNfNM-58" value="" style="shape=partialRectangle;overflow=hidden;connectable=0;fillColor=none;top=0;left=0;bottom=0;right=0;" vertex="1" parent="v9vL_RGr1yaiKwniNfNM-57">
          <mxGeometry width="30" height="30" as="geometry" />
        </mxCell>
        <mxCell id="v9vL_RGr1yaiKwniNfNM-59" value="" style="shape=partialRectangle;overflow=hidden;connectable=0;fillColor=none;top=0;left=0;bottom=0;right=0;align=left;spacingLeft=6;" vertex="1" parent="v9vL_RGr1yaiKwniNfNM-57">
          <mxGeometry x="30" width="210" height="30" as="geometry" />
        </mxCell>
        <mxCell id="v9vL_RGr1yaiKwniNfNM-103" value="" style="group" vertex="1" connectable="0" parent="v9vL_RGr1yaiKwniNfNM-104">
          <mxGeometry y="80" width="240.00000000000003" height="240" as="geometry" />
        </mxCell>
        <mxCell id="v9vL_RGr1yaiKwniNfNM-99" value="" style="group" vertex="1" connectable="0" parent="v9vL_RGr1yaiKwniNfNM-103">
          <mxGeometry y="90" width="240.00000000000003" height="150" as="geometry" />
        </mxCell>
        <mxCell id="v9vL_RGr1yaiKwniNfNM-100" value="" style="group" vertex="1" connectable="0" parent="v9vL_RGr1yaiKwniNfNM-99">
          <mxGeometry width="240.00000000000003" height="150" as="geometry" />
        </mxCell>
        <mxCell id="v9vL_RGr1yaiKwniNfNM-77" value="" style="shape=partialRectangle;collapsible=0;dropTarget=0;pointerEvents=0;fillColor=none;points=[[0,0.5],[1,0.5]];portConstraint=eastwest;top=0;left=0;right=0;bottom=0;" vertex="1" parent="v9vL_RGr1yaiKwniNfNM-100">
          <mxGeometry width="240.00000000000003" height="30" as="geometry" />
        </mxCell>
        <mxCell id="v9vL_RGr1yaiKwniNfNM-79" value="MF_id int NOT NULL" style="shape=partialRectangle;overflow=hidden;connectable=0;fillColor=none;top=0;left=0;bottom=0;right=0;align=left;spacingLeft=6;" vertex="1" parent="v9vL_RGr1yaiKwniNfNM-77">
          <mxGeometry x="28.799999999999997" width="211.2" height="30" as="geometry" />
        </mxCell>
        <mxCell id="v9vL_RGr1yaiKwniNfNM-98" value="" style="group" vertex="1" connectable="0" parent="v9vL_RGr1yaiKwniNfNM-100">
          <mxGeometry y="30" width="240.00000000000003" height="120" as="geometry" />
        </mxCell>
        <mxCell id="v9vL_RGr1yaiKwniNfNM-89" value="" style="shape=partialRectangle;collapsible=0;dropTarget=0;pointerEvents=0;fillColor=none;points=[[0,0.5],[1,0.5]];portConstraint=eastwest;top=0;left=0;right=0;bottom=0;" vertex="1" parent="v9vL_RGr1yaiKwniNfNM-98">
          <mxGeometry width="240.00000000000003" height="30" as="geometry" />
        </mxCell>
        <mxCell id="v9vL_RGr1yaiKwniNfNM-91" value="MV_id int NOT NULL" style="shape=partialRectangle;overflow=hidden;connectable=0;fillColor=none;top=0;left=0;bottom=0;right=0;align=left;spacingLeft=6;" vertex="1" parent="v9vL_RGr1yaiKwniNfNM-89">
          <mxGeometry x="28.799999999999997" width="211.2" height="30" as="geometry" />
        </mxCell>
        <mxCell id="v9vL_RGr1yaiKwniNfNM-97" value="" style="group" vertex="1" connectable="0" parent="v9vL_RGr1yaiKwniNfNM-98">
          <mxGeometry y="30" width="240.00000000000003" height="90" as="geometry" />
        </mxCell>
        <mxCell id="v9vL_RGr1yaiKwniNfNM-81" value="" style="shape=partialRectangle;collapsible=0;dropTarget=0;pointerEvents=0;fillColor=none;points=[[0,0.5],[1,0.5]];portConstraint=eastwest;top=0;left=0;right=0;bottom=0;" vertex="1" parent="v9vL_RGr1yaiKwniNfNM-97">
          <mxGeometry width="240.00000000000003" height="30" as="geometry" />
        </mxCell>
        <mxCell id="v9vL_RGr1yaiKwniNfNM-83" value="timestamp DATE NOT NULL" style="shape=partialRectangle;overflow=hidden;connectable=0;fillColor=none;top=0;left=0;bottom=0;right=0;align=left;spacingLeft=6;" vertex="1" parent="v9vL_RGr1yaiKwniNfNM-81">
          <mxGeometry x="28.799999999999997" width="211.2" height="30" as="geometry" />
        </mxCell>
        <mxCell id="v9vL_RGr1yaiKwniNfNM-96" value="" style="group" vertex="1" connectable="0" parent="v9vL_RGr1yaiKwniNfNM-97">
          <mxGeometry y="30" width="240.00000000000003" height="60" as="geometry" />
        </mxCell>
        <mxCell id="v9vL_RGr1yaiKwniNfNM-85" value="" style="shape=partialRectangle;collapsible=0;dropTarget=0;pointerEvents=0;fillColor=none;points=[[0,0.5],[1,0.5]];portConstraint=eastwest;top=0;left=0;right=0;bottom=0;" vertex="1" parent="v9vL_RGr1yaiKwniNfNM-96">
          <mxGeometry width="240.00000000000003" height="30" as="geometry" />
        </mxCell>
        <mxCell id="v9vL_RGr1yaiKwniNfNM-86" value="" style="shape=partialRectangle;overflow=hidden;connectable=0;fillColor=none;top=0;left=0;bottom=0;right=0;" vertex="1" parent="v9vL_RGr1yaiKwniNfNM-85">
          <mxGeometry width="28.799999999999997" height="30" as="geometry" />
        </mxCell>
        <mxCell id="v9vL_RGr1yaiKwniNfNM-87" value="result_is_stable boolean NOT NULL" style="shape=partialRectangle;overflow=hidden;connectable=0;fillColor=none;top=0;left=0;bottom=0;right=0;align=left;spacingLeft=6;" vertex="1" parent="v9vL_RGr1yaiKwniNfNM-85">
          <mxGeometry x="28.799999999999997" width="192" height="30" as="geometry" />
        </mxCell>
        <mxCell id="v9vL_RGr1yaiKwniNfNM-92" value="total_E float NOT NULL" style="shape=partialRectangle;overflow=hidden;connectable=0;fillColor=none;top=0;left=0;bottom=0;right=0;align=left;spacingLeft=6;" vertex="1" parent="v9vL_RGr1yaiKwniNfNM-96">
          <mxGeometry x="28.799999999999997" y="30" width="211.2" height="30" as="geometry" />
        </mxCell>
        <mxCell id="v9vL_RGr1yaiKwniNfNM-75" value="FK1" style="shape=partialRectangle;overflow=hidden;connectable=0;fillColor=none;top=0;left=0;bottom=0;right=0;" vertex="1" parent="v9vL_RGr1yaiKwniNfNM-100">
          <mxGeometry width="28.799999999999997" height="30" as="geometry" />
        </mxCell>
        <mxCell id="v9vL_RGr1yaiKwniNfNM-80" value="FK1" style="shape=partialRectangle;overflow=hidden;connectable=0;fillColor=none;top=0;left=0;bottom=0;right=0;" vertex="1" parent="v9vL_RGr1yaiKwniNfNM-100">
          <mxGeometry y="30" width="28.799999999999997" height="30" as="geometry" />
        </mxCell>
        <mxCell id="v9vL_RGr1yaiKwniNfNM-102" value="" style="group" vertex="1" connectable="0" parent="v9vL_RGr1yaiKwniNfNM-103">
          <mxGeometry width="240.00000000000003" height="90" as="geometry" />
        </mxCell>
        <mxCell id="v9vL_RGr1yaiKwniNfNM-66" value="" style="shape=partialRectangle;collapsible=0;dropTarget=0;pointerEvents=0;fillColor=none;points=[[0,0.5],[1,0.5]];portConstraint=eastwest;top=0;left=0;right=0;bottom=0;" vertex="1" parent="v9vL_RGr1yaiKwniNfNM-102">
          <mxGeometry width="230.39999999999998" height="30" as="geometry" />
        </mxCell>
        <mxCell id="v9vL_RGr1yaiKwniNfNM-67" value="FK1" style="shape=partialRectangle;overflow=hidden;connectable=0;fillColor=none;top=0;left=0;bottom=0;right=0;" vertex="1" parent="v9vL_RGr1yaiKwniNfNM-66">
          <mxGeometry width="28.799999999999997" height="30" as="geometry" />
        </mxCell>
        <mxCell id="v9vL_RGr1yaiKwniNfNM-68" value="MC_ id int NOT NULL" style="shape=partialRectangle;overflow=hidden;connectable=0;fillColor=none;top=0;left=0;bottom=0;right=0;align=left;spacingLeft=6;" vertex="1" parent="v9vL_RGr1yaiKwniNfNM-66">
          <mxGeometry x="28.799999999999997" width="201.59999999999994" height="30" as="geometry" />
        </mxCell>
        <mxCell id="v9vL_RGr1yaiKwniNfNM-101" value="" style="group" vertex="1" connectable="0" parent="v9vL_RGr1yaiKwniNfNM-102">
          <mxGeometry y="30" width="240.00000000000003" height="60" as="geometry" />
        </mxCell>
        <mxCell id="v9vL_RGr1yaiKwniNfNM-69" value="" style="shape=partialRectangle;collapsible=0;dropTarget=0;pointerEvents=0;fillColor=none;points=[[0,0.5],[1,0.5]];portConstraint=eastwest;top=0;left=0;right=0;bottom=0;" vertex="1" parent="v9vL_RGr1yaiKwniNfNM-101">
          <mxGeometry width="230.39999999999998" height="30" as="geometry" />
        </mxCell>
        <mxCell id="v9vL_RGr1yaiKwniNfNM-70" value="" style="shape=partialRectangle;overflow=hidden;connectable=0;fillColor=none;top=0;left=0;bottom=0;right=0;" vertex="1" parent="v9vL_RGr1yaiKwniNfNM-69">
          <mxGeometry width="28.799999999999997" height="30" as="geometry" />
        </mxCell>
        <mxCell id="v9vL_RGr1yaiKwniNfNM-71" value="MO_ id int NOT NULL" style="shape=partialRectangle;overflow=hidden;connectable=0;fillColor=none;top=0;left=0;bottom=0;right=0;align=left;spacingLeft=6;" vertex="1" parent="v9vL_RGr1yaiKwniNfNM-69">
          <mxGeometry x="28.799999999999997" width="201.59999999999994" height="30" as="geometry" />
        </mxCell>
        <mxCell id="v9vL_RGr1yaiKwniNfNM-72" value="" style="shape=partialRectangle;collapsible=0;dropTarget=0;pointerEvents=0;fillColor=none;points=[[0,0.5],[1,0.5]];portConstraint=eastwest;top=0;left=0;right=0;bottom=0;" vertex="1" parent="v9vL_RGr1yaiKwniNfNM-101">
          <mxGeometry y="30" width="240.00000000000003" height="30" as="geometry" />
        </mxCell>
        <mxCell id="v9vL_RGr1yaiKwniNfNM-73" value="" style="shape=partialRectangle;overflow=hidden;connectable=0;fillColor=none;top=0;left=0;bottom=0;right=0;" vertex="1" parent="v9vL_RGr1yaiKwniNfNM-72">
          <mxGeometry width="28.799999999999997" height="30" as="geometry" />
        </mxCell>
        <mxCell id="v9vL_RGr1yaiKwniNfNM-74" value="MC_id int NOT NULL" style="shape=partialRectangle;overflow=hidden;connectable=0;fillColor=none;top=0;left=0;bottom=0;right=0;align=left;spacingLeft=6;" vertex="1" parent="v9vL_RGr1yaiKwniNfNM-72">
          <mxGeometry x="28.799999999999997" width="211.2" height="30" as="geometry" />
        </mxCell>
        <mxCell id="v9vL_RGr1yaiKwniNfNM-90" value="FK1" style="shape=partialRectangle;overflow=hidden;connectable=0;fillColor=none;top=0;left=0;bottom=0;right=0;" vertex="1" parent="v9vL_RGr1yaiKwniNfNM-101">
          <mxGeometry width="28.799999999999997" height="30" as="geometry" />
        </mxCell>
        <mxCell id="v9vL_RGr1yaiKwniNfNM-76" value="FK1" style="shape=partialRectangle;overflow=hidden;connectable=0;fillColor=none;top=0;left=0;bottom=0;right=0;" vertex="1" parent="v9vL_RGr1yaiKwniNfNM-101">
          <mxGeometry y="30" width="28.799999999999997" height="30" as="geometry" />
        </mxCell>
        <mxCell id="v9vL_RGr1yaiKwniNfNM-126" value="n" style="edgeStyle=orthogonalEdgeStyle;rounded=0;orthogonalLoop=1;jettySize=auto;html=1;exitX=0.5;exitY=1;exitDx=0;exitDy=0;" edge="1" parent="1" source="v9vL_RGr1yaiKwniNfNM-105" target="v9vL_RGr1yaiKwniNfNM-106">
          <mxGeometry relative="1" as="geometry" />
        </mxCell>
        <mxCell id="v9vL_RGr1yaiKwniNfNM-127" value="n" style="edgeStyle=orthogonalEdgeStyle;rounded=0;orthogonalLoop=1;jettySize=auto;html=1;exitX=0.5;exitY=1;exitDx=0;exitDy=0;entryX=0.5;entryY=0;entryDx=0;entryDy=0;" edge="1" parent="1" source="v9vL_RGr1yaiKwniNfNM-105" target="v9vL_RGr1yaiKwniNfNM-111">
          <mxGeometry relative="1" as="geometry" />
        </mxCell>
        <mxCell id="v9vL_RGr1yaiKwniNfNM-133" value="n" style="edgeStyle=orthogonalEdgeStyle;rounded=0;orthogonalLoop=1;jettySize=auto;html=1;exitX=1;exitY=0.5;exitDx=0;exitDy=0;entryX=0;entryY=0.5;entryDx=0;entryDy=0;" edge="1" parent="1" source="v9vL_RGr1yaiKwniNfNM-105" target="v9vL_RGr1yaiKwniNfNM-132">
          <mxGeometry relative="1" as="geometry" />
        </mxCell>
        <mxCell id="v9vL_RGr1yaiKwniNfNM-105" value="Material_Database" style="ellipse;whiteSpace=wrap;html=1;" vertex="1" parent="1">
          <mxGeometry x="267.5" y="620" width="120" height="80" as="geometry" />
        </mxCell>
        <mxCell id="v9vL_RGr1yaiKwniNfNM-113" value="1 n&amp;nbsp;" style="edgeStyle=orthogonalEdgeStyle;rounded=0;orthogonalLoop=1;jettySize=auto;html=1;exitX=1;exitY=0.5;exitDx=0;exitDy=0;entryX=0;entryY=0.5;entryDx=0;entryDy=0;" edge="1" parent="1" source="v9vL_RGr1yaiKwniNfNM-106" target="v9vL_RGr1yaiKwniNfNM-111">
          <mxGeometry relative="1" as="geometry" />
        </mxCell>
        <mxCell id="v9vL_RGr1yaiKwniNfNM-115" value="1 n" style="edgeStyle=orthogonalEdgeStyle;rounded=0;orthogonalLoop=1;jettySize=auto;html=1;exitX=0;exitY=0.5;exitDx=0;exitDy=0;entryX=0.5;entryY=0;entryDx=0;entryDy=0;" edge="1" parent="1" source="v9vL_RGr1yaiKwniNfNM-106" target="v9vL_RGr1yaiKwniNfNM-109">
          <mxGeometry relative="1" as="geometry" />
        </mxCell>
        <mxCell id="v9vL_RGr1yaiKwniNfNM-130" value="1 / n" style="edgeStyle=orthogonalEdgeStyle;rounded=0;orthogonalLoop=1;jettySize=auto;html=1;exitX=0.5;exitY=1;exitDx=0;exitDy=0;entryX=0.5;entryY=0;entryDx=0;entryDy=0;" edge="1" parent="1" source="v9vL_RGr1yaiKwniNfNM-106" target="v9vL_RGr1yaiKwniNfNM-110">
          <mxGeometry relative="1" as="geometry" />
        </mxCell>
        <mxCell id="v9vL_RGr1yaiKwniNfNM-140" style="edgeStyle=orthogonalEdgeStyle;rounded=0;orthogonalLoop=1;jettySize=auto;html=1;exitX=1;exitY=0.5;exitDx=0;exitDy=0;entryX=0.5;entryY=0;entryDx=0;entryDy=0;" edge="1" parent="1" source="v9vL_RGr1yaiKwniNfNM-106" target="v9vL_RGr1yaiKwniNfNM-107">
          <mxGeometry relative="1" as="geometry" />
        </mxCell>
        <mxCell id="v9vL_RGr1yaiKwniNfNM-141" value="1 n" style="edgeLabel;html=1;align=center;verticalAlign=middle;resizable=0;points=[];" vertex="1" connectable="0" parent="v9vL_RGr1yaiKwniNfNM-140">
          <mxGeometry x="0.5718" y="4" relative="1" as="geometry">
            <mxPoint y="1" as="offset" />
          </mxGeometry>
        </mxCell>
        <mxCell id="v9vL_RGr1yaiKwniNfNM-106" value="Material" style="ellipse;whiteSpace=wrap;html=1;" vertex="1" parent="1">
          <mxGeometry x="150" y="770" width="120" height="80" as="geometry" />
        </mxCell>
        <mxCell id="v9vL_RGr1yaiKwniNfNM-107" value="Volume&lt;span style=&quot;color: rgba(0 , 0 , 0 , 0) ; font-family: monospace ; font-size: 0px&quot;&gt;%3CmxGraphModel%3E%3Croot%3E%3CmxCell%20id%3D%220%22%2F%3E%3CmxCell%20id%3D%221%22%20parent%3D%220%22%2F%3E%3CmxCell%20id%3D%222%22%20value%3D%22Material%22%20style%3D%22ellipse%3BwhiteSpace%3Dwrap%3Bhtml%3D1%3B%22%20vertex%3D%221%22%20parent%3D%221%22%3E%3CmxGeometry%20x%3D%22375%22%20y%3D%22670%22%20width%3D%22120%22%20height%3D%2280%22%20as%3D%22geometry%22%2F%3E%3C%2FmxCell%3E%3C%2Froot%3E%3C%2FmxGraphModel%3E&lt;/span&gt;" style="ellipse;whiteSpace=wrap;html=1;" vertex="1" parent="1">
          <mxGeometry x="280" y="920" width="115" height="80" as="geometry" />
        </mxCell>
        <mxCell id="v9vL_RGr1yaiKwniNfNM-108" value="Fermi" style="ellipse;whiteSpace=wrap;html=1;" vertex="1" parent="1">
          <mxGeometry x="60" y="1020" width="115" height="80" as="geometry" />
        </mxCell>
        <mxCell id="v9vL_RGr1yaiKwniNfNM-117" value="1,1" style="edgeStyle=orthogonalEdgeStyle;rounded=0;orthogonalLoop=1;jettySize=auto;html=1;exitX=0.5;exitY=1;exitDx=0;exitDy=0;entryX=0;entryY=0.5;entryDx=0;entryDy=0;" edge="1" parent="1" source="v9vL_RGr1yaiKwniNfNM-109" target="v9vL_RGr1yaiKwniNfNM-108">
          <mxGeometry relative="1" as="geometry" />
        </mxCell>
        <mxCell id="v9vL_RGr1yaiKwniNfNM-109" value="other" style="ellipse;whiteSpace=wrap;html=1;" vertex="1" parent="1">
          <mxGeometry x="-100" y="910" width="115" height="80" as="geometry" />
        </mxCell>
        <mxCell id="v9vL_RGr1yaiKwniNfNM-118" value="1,1" style="edgeStyle=orthogonalEdgeStyle;rounded=0;orthogonalLoop=1;jettySize=auto;html=1;exitX=0.5;exitY=1;exitDx=0;exitDy=0;entryX=1;entryY=0.5;entryDx=0;entryDy=0;" edge="1" parent="1" source="v9vL_RGr1yaiKwniNfNM-110" target="v9vL_RGr1yaiKwniNfNM-108">
          <mxGeometry relative="1" as="geometry">
            <mxPoint x="235" y="1040" as="targetPoint" />
          </mxGeometry>
        </mxCell>
        <mxCell id="v9vL_RGr1yaiKwniNfNM-110" value="structure type" style="ellipse;whiteSpace=wrap;html=1;" vertex="1" parent="1">
          <mxGeometry x="152.5" y="910" width="115" height="80" as="geometry" />
        </mxCell>
        <mxCell id="v9vL_RGr1yaiKwniNfNM-124" value="11" style="edgeStyle=orthogonalEdgeStyle;rounded=0;orthogonalLoop=1;jettySize=auto;html=1;exitX=0.5;exitY=1;exitDx=0;exitDy=0;entryX=0.5;entryY=0;entryDx=0;entryDy=0;" edge="1" parent="1" source="v9vL_RGr1yaiKwniNfNM-111" target="v9vL_RGr1yaiKwniNfNM-119">
          <mxGeometry relative="1" as="geometry" />
        </mxCell>
        <mxCell id="v9vL_RGr1yaiKwniNfNM-125" value="11" style="edgeStyle=orthogonalEdgeStyle;rounded=0;orthogonalLoop=1;jettySize=auto;html=1;exitX=0.5;exitY=1;exitDx=0;exitDy=0;entryX=0.5;entryY=0;entryDx=0;entryDy=0;" edge="1" parent="1" source="v9vL_RGr1yaiKwniNfNM-111" target="v9vL_RGr1yaiKwniNfNM-120">
          <mxGeometry relative="1" as="geometry" />
        </mxCell>
        <mxCell id="v9vL_RGr1yaiKwniNfNM-111" value="Simulation" style="ellipse;whiteSpace=wrap;html=1;" vertex="1" parent="1">
          <mxGeometry x="610" y="770" width="120" height="80" as="geometry" />
        </mxCell>
        <mxCell id="v9vL_RGr1yaiKwniNfNM-119" value="Time" style="ellipse;whiteSpace=wrap;html=1;" vertex="1" parent="1">
          <mxGeometry x="540" y="920" width="120" height="80" as="geometry" />
        </mxCell>
        <mxCell id="v9vL_RGr1yaiKwniNfNM-120" value="result" style="ellipse;whiteSpace=wrap;html=1;" vertex="1" parent="1">
          <mxGeometry x="680" y="920" width="120" height="80" as="geometry" />
        </mxCell>
        <mxCell id="v9vL_RGr1yaiKwniNfNM-137" value="1.1" style="edgeStyle=orthogonalEdgeStyle;rounded=0;orthogonalLoop=1;jettySize=auto;html=1;exitX=1;exitY=0.5;exitDx=0;exitDy=0;" edge="1" parent="1" source="v9vL_RGr1yaiKwniNfNM-132" target="v9vL_RGr1yaiKwniNfNM-134">
          <mxGeometry relative="1" as="geometry" />
        </mxCell>
        <mxCell id="v9vL_RGr1yaiKwniNfNM-139" value="1.1" style="edgeStyle=orthogonalEdgeStyle;rounded=0;orthogonalLoop=1;jettySize=auto;html=1;exitX=1;exitY=0.5;exitDx=0;exitDy=0;entryX=0;entryY=0.5;entryDx=0;entryDy=0;" edge="1" parent="1" source="v9vL_RGr1yaiKwniNfNM-132" target="v9vL_RGr1yaiKwniNfNM-136">
          <mxGeometry relative="1" as="geometry" />
        </mxCell>
        <mxCell id="v9vL_RGr1yaiKwniNfNM-132" value="User" style="ellipse;whiteSpace=wrap;html=1;" vertex="1" parent="1">
          <mxGeometry x="565" y="620" width="120" height="80" as="geometry" />
        </mxCell>
        <mxCell id="v9vL_RGr1yaiKwniNfNM-134" value="Name" style="ellipse;whiteSpace=wrap;html=1;" vertex="1" parent="1">
          <mxGeometry x="725" y="580" width="120" height="80" as="geometry" />
        </mxCell>
        <mxCell id="v9vL_RGr1yaiKwniNfNM-136" value="Password" style="ellipse;whiteSpace=wrap;html=1;" vertex="1" parent="1">
          <mxGeometry x="725" y="680" width="120" height="80" as="geometry" />
        </mxCell>
      </root>
    </mxGraphModel>
  </diagram>
</mxfile>
